# xmcd
#
# Track frame offsets: 
#        150
#        18936
#        36188
#        58458
#        77940
#        98438
#        119879
#        140049
#        156981
#        173528
#        193670
#        210925
#        228347
#        245731
#
# Disc length: 3732 seconds
#
# Revision: 0
# Processed by: cddbd v1.5.2PL0 Copyright (c) Steve Scherf et al.
# Submitted via: ExactAudioCopyFreeDBPlugin 1.0
#
DISCID=c30e920e
DTITLE=Hinda Hicks - Everything To Me
DYEAR=2000
DGENRE=R&B
TTITLE0=Our Destiny
TTITLE1=Worthy
TTITLE2=My Remedy
TTITLE3=Killing Me Inside
TTITLE4=Show Me (Whatcha Got)
TTITLE5=Everyday
TTITLE6=Give U My Heart
TTITLE7=Do What You Gotta Do
TTITLE8=The Grass Ain't Greener
TTITLE9=Suddenly
TTITLE10=Sunshine
TTITLE11=He's Out Of My Life
TTITLE12=Don't You Let Nobody (Put You Down)
TTITLE13=Everything To Me
EXTD=
EXTT0=
EXTT1=
EXTT2=
EXTT3=
EXTT4=
EXTT5=
EXTT6=
EXTT7=
EXTT8=
EXTT9=
EXTT10=
EXTT11=
EXTT12=
EXTT13=
PLAYORDER=
